ply
format ascii 1.0
comment Created by Blender 2.71 (sub 0) - www.blender.org, source file: ''
element vertex 678
property float x
property float y
property float z
property float nx
property float ny
property float nz
property uchar red
property uchar green
property uchar blue
element face 288
property list uchar int vertex_indices
end_header
0.000008 2.826219 1.039502 0.048275 0.242696 0.968901 255 0 0
0.000008 1.899407 1.271655 0.048275 0.242696 0.968901 255 0 0
1.081555 2.611085 1.039502 0.048275 0.242696 0.968901 255 0 0
-0.000000 -3.600000 -0.000001 0.201343 -0.979521 0.000000 0 255 0
-0.000000 -3.600000 -0.775001 0.201343 -0.979521 0.000000 0 255 0
1.374175 -3.317535 -0.765903 0.201343 -0.979521 0.000000 0 255 0
-0.674786 -0.674793 -1.411847 -0.041597 -0.027794 -0.998748 0 0 255
-0.881652 -0.365196 -1.411847 -0.041597 -0.027794 -0.998748 0 0 255
0.000005 -0.000007 -1.458730 -0.041597 -0.027794 -0.998748 0 0 255
0.726879 1.754823 1.271655 0.048275 0.242696 0.968901 255 0 0
-0.674786 0.674794 1.411847 -0.083080 0.124338 0.988756 255 0 0
-0.365188 0.881661 1.411847 -0.083080 0.124338 0.988756 255 0 0
-0.726864 1.754823 1.271655 -0.083080 0.124338 0.988756 255 0 0
-0.674786 0.674794 -1.411847 -0.027794 0.041596 -0.998748 0 0 255
-0.365188 0.881661 -1.411847 -0.027794 0.041596 -0.998748 0 0 255
0.000005 -0.000007 -1.458730 -0.027794 0.041596 -0.998748 0 0 255
-0.000000 -3.600000 -0.000001 0.195077 -0.980718 0.011684 0 255 0
1.377660 -3.325967 -0.000001 0.195077 -0.980718 0.011684 0 255 0
1.374175 -3.317535 0.765903 0.195077 -0.980718 0.011684 0 255 0
3.325966 1.377661 -0.000001 0.831413 0.555532 0.011676 0 255 0
2.545584 2.545585 -0.000001 0.831413 0.555532 0.011676 0 255 0
2.539140 2.539131 0.765903 0.831413 0.555532 0.011676 0 255 0
-1.899399 0.000000 1.271655 -0.146668 0.029174 0.988755 255 0 0
-0.954295 0.000000 1.411848 -0.146668 0.029174 0.988755 255 0 0
-1.754816 0.726872 1.271655 -0.146668 0.029174 0.988755 255 0 0
2.826226 0.000000 1.039502 0.242695 -0.048275 0.968901 255 0 0
1.899414 0.000000 1.271655 0.242695 -0.048275 0.968901 255 0 0
2.611094 -1.081547 1.039502 0.242695 -0.048275 0.968901 255 0 0
-1.899399 0.000000 -1.271655 -0.242696 0.048274 -0.968900 0 0 255
-2.826211 0.000000 -1.039501 -0.242696 0.048274 -0.968900 0 0 255
-2.611078 1.081547 -1.039502 -0.242696 0.048274 -0.968900 0 0 255
-2.545584 -2.545584 -0.000001 -0.831469 -0.555570 0.000000 0 255 0
-3.325966 -1.377661 -0.000001 -0.831469 -0.555570 0.000000 0 255 0
-2.545584 -2.545584 -0.775001 -0.831469 -0.555570 0.000000 0 255 0
-0.881652 -0.365196 -1.411847 -0.049065 -0.009762 -0.998748 0 0 255
-0.954295 0.000000 -1.411848 -0.049065 -0.009762 -0.998748 0 0 255
0.000005 -0.000007 -1.458730 -0.049065 -0.009762 -0.998748 0 0 255
3.317543 1.374168 -0.765903 0.284963 0.190406 -0.939437 0 0 255
2.611094 1.081547 -1.039502 0.284963 0.190406 -0.939437 0 0 255
2.539140 2.539131 -0.765903 0.284963 0.190406 -0.939437 0 0 255
-2.611078 1.081547 1.039502 -0.205747 0.137476 0.968901 255 0 0
-1.754816 0.726872 1.271655 -0.205747 0.137476 0.968901 255 0 0
-1.343076 1.343084 1.271655 -0.205747 0.137476 0.968901 255 0 0
-0.881652 -0.365196 1.411847 -0.146666 -0.029177 0.988756 255 0 0
-0.954295 0.000000 1.411848 -0.146666 -0.029177 0.988756 255 0 0
-1.754815 -0.726871 1.271655 -0.146666 -0.029177 0.988756 255 0 0
0.000008 -0.954302 -1.411847 -0.029174 -0.146667 -0.988756 0 0 255
0.000008 -1.899407 -1.271655 -0.029174 -0.146667 -0.988756 0 0 255
-0.726863 -1.754823 -1.271655 -0.029174 -0.146667 -0.988756 0 0 255
-1.754815 -0.726871 1.271655 -0.146668 -0.029174 0.988755 255 0 0
-0.954295 0.000000 1.411848 -0.146668 -0.029174 0.988755 255 0 0
-1.899399 0.000000 1.271655 -0.146668 -0.029174 0.988755 255 0 0
0.000008 1.899407 -1.271655 0.029174 0.146667 -0.988756 0 0 255
0.726879 1.754823 -1.271655 0.029174 0.146667 -0.988756 0 0 255
0.000008 0.954303 -1.411847 0.029174 0.146667 -0.988756 0 0 255
-0.726864 1.754823 -1.271655 -0.048275 0.242696 -0.968901 0 0 255
-1.081539 2.611086 -1.039502 -0.048275 0.242696 -0.968901 0 0 255
0.000008 2.826219 -1.039502 -0.048275 0.242696 -0.968901 0 0 255
-1.377661 -3.325966 -0.775001 -0.555571 -0.831469 -0.000000 0 255 0
-1.377661 -3.325966 -0.000001 -0.555571 -0.831469 -0.000000 0 255 0
-2.545584 -2.545584 -0.775001 -0.555571 -0.831469 -0.000000 0 255 0
1.754831 0.726871 1.271655 0.242695 0.048275 0.968901 255 0 0
1.899414 0.000000 1.271655 0.242695 0.048275 0.968901 255 0 0
2.826226 0.000000 1.039502 0.242695 0.048275 0.968901 255 0 0
1.343091 1.343083 -1.271655 0.083080 0.124338 -0.988756 0 0 255
0.674802 0.674794 -1.411847 0.083080 0.124338 -0.988756 0 0 255
0.365204 0.881661 -1.411847 0.083080 0.124338 -0.988756 0 0 255
-3.600000 -0.000000 -0.775001 -0.322598 0.072560 -0.943751 0 0 255
-3.317528 1.374168 -0.765903 -0.322598 0.072560 -0.943751 0 0 255
-2.826211 0.000000 -1.039501 -0.322598 0.072560 -0.943751 0 0 255
2.545584 -2.545585 -0.000001 0.831413 -0.555532 0.011677 0 255 0
3.325966 -1.377661 -0.000001 0.831413 -0.555532 0.011677 0 255 0
2.539139 -2.539132 0.765903 0.831413 -0.555532 0.011677 0 255 0
0.000008 -0.954302 -1.411847 -0.009760 -0.049067 -0.998748 0 0 255
-0.365188 -0.881660 -1.411847 -0.009760 -0.049067 -0.998748 0 0 255
0.000005 -0.000007 -1.458730 -0.009760 -0.049067 -0.998748 0 0 255
0.000008 0.954303 -1.411847 0.009760 0.049066 -0.998748 0 0 255
0.365204 0.881661 -1.411847 0.009760 0.049066 -0.998748 0 0 255
0.000005 -0.000007 -1.458730 0.009760 0.049066 -0.998748 0 0 255
0.000008 1.899407 1.271655 0.029174 0.146667 0.988756 255 0 0
0.000008 0.954303 1.411847 0.029174 0.146667 0.988756 255 0 0
0.726879 1.754823 1.271655 0.029174 0.146667 0.988756 255 0 0
0.000008 3.590874 -0.765903 -0.066862 0.336137 -0.939437 0 0 255
0.000008 2.826219 -1.039502 -0.066862 0.336137 -0.939437 0 0 255
-1.081539 2.611086 -1.039502 -0.066862 0.336137 -0.939437 0 0 255
-0.726864 1.754823 -1.271655 -0.083080 0.124338 -0.988756 0 0 255
-0.365188 0.881661 -1.411847 -0.083080 0.124338 -0.988756 0 0 255
-0.674786 0.674794 -1.411847 -0.083080 0.124338 -0.988756 0 0 255
-1.754815 -0.726871 -1.271655 -0.146668 -0.029174 -0.988755 0 0 255
-1.899399 0.000000 -1.271655 -0.146668 -0.029174 -0.988755 0 0 255
-0.954295 0.000000 -1.411848 -0.146668 -0.029174 -0.988755 0 0 255
-1.081539 2.611086 1.039502 -0.048275 0.242696 0.968901 255 0 0
-0.726864 1.754823 1.271655 -0.048275 0.242696 0.968901 255 0 0
0.000008 2.826219 1.039502 -0.048275 0.242696 0.968901 255 0 0
-1.377661 -3.325966 0.775001 -0.195090 -0.980785 0.000000 0 255 0
-1.377661 -3.325966 -0.000001 -0.195090 -0.980785 0.000000 0 255 0
-0.000000 -3.600000 -0.000001 -0.195090 -0.980785 0.000000 0 255 0
0.000005 -0.000007 1.458730 0.049066 -0.009760 0.998748 255 0 0
0.881668 -0.365196 1.411847 0.049066 -0.009760 0.998748 255 0 0
0.954310 0.000000 1.411847 0.049066 -0.009760 0.998748 255 0 0
-1.998431 1.998439 1.039502 -0.137476 0.205747 0.968901 255 0 0
-1.343076 1.343084 1.271655 -0.137476 0.205747 0.968901 255 0 0
-0.726864 1.754823 1.271655 -0.137476 0.205747 0.968901 255 0 0
-2.611077 -1.081547 -1.039502 -0.242696 -0.048275 -0.968900 0 0 255
-2.826211 0.000000 -1.039501 -0.242696 -0.048275 -0.968900 0 0 255
-1.899399 0.000000 -1.271655 -0.242696 -0.048275 -0.968900 0 0 255
1.374176 3.317535 0.765903 0.190406 0.284963 0.939437 255 0 0
1.081555 2.611085 1.039502 0.190406 0.284963 0.939437 255 0 0
1.998446 1.998438 1.039502 0.190406 0.284963 0.939437 255 0 0
-2.545584 -2.545584 -0.000001 -0.555571 -0.831469 -0.000000 0 255 0
-1.377661 -3.325966 0.775001 -0.555571 -0.831469 -0.000000 0 255 0
0.674801 -0.674794 1.411847 0.083080 -0.124338 0.988756 255 0 0
0.365203 -0.881660 1.411847 0.083080 -0.124338 0.988756 255 0 0
0.726879 -1.754823 1.271655 0.083080 -0.124338 0.988756 255 0 0
-1.998431 1.998439 1.039502 -0.205747 0.137476 0.968901 255 0 0
-1.343075 -1.343083 1.271655 -0.205748 -0.137476 0.968901 255 0 0
-1.754815 -0.726871 1.271655 -0.205748 -0.137476 0.968901 255 0 0
-2.611077 -1.081547 1.039502 -0.205748 -0.137476 0.968901 255 0 0
0.000005 -0.000007 1.458730 -0.009760 0.049066 0.998748 255 0 0
0.000008 0.954303 1.411847 -0.009760 0.049066 0.998748 255 0 0
-0.365188 0.881661 1.411847 -0.009760 0.049066 0.998748 255 0 0
-2.826211 0.000000 1.039501 -0.242696 -0.048275 0.968900 255 0 0
-2.611077 -1.081547 1.039502 -0.242696 -0.048275 0.968900 255 0 0
-1.899399 0.000000 1.271655 -0.242696 -0.048275 0.968900 255 0 0
-1.343076 1.343084 -1.271655 -0.083080 0.124338 -0.988756 0 0 255
0.726879 1.754823 -1.271655 0.048275 0.242696 -0.968901 0 0 255
0.000008 1.899407 -1.271655 0.048275 0.242696 -0.968901 0 0 255
1.081555 2.611085 -1.039502 0.048275 0.242696 -0.968901 0 0 255
0.000005 -0.000007 1.458730 0.027794 0.041596 0.998748 255 0 0
0.674802 0.674794 1.411847 0.027794 0.041596 0.998748 255 0 0
0.365204 0.881661 1.411847 0.027794 0.041596 0.998748 255 0 0
0.674802 0.674794 1.411847 0.041596 0.027794 0.998748 255 0 0
0.000005 -0.000007 1.458730 0.041596 0.027794 0.998748 255 0 0
0.881669 0.365196 1.411847 0.041596 0.027794 0.998748 255 0 0
-1.754816 0.726872 1.271655 -0.124338 0.083080 0.988756 255 0 0
-0.881653 0.365196 1.411847 -0.124338 0.083080 0.988756 255 0 0
-1.343076 1.343084 1.271655 -0.124338 0.083080 0.988756 255 0 0
-0.365188 -0.881660 -1.411847 -0.029174 -0.146667 -0.988756 0 0 255
2.611094 -1.081547 -1.039502 0.242695 -0.048275 -0.968901 0 0 255
1.754830 -0.726871 -1.271655 0.242695 -0.048275 -0.968901 0 0 255
1.899414 0.000000 -1.271655 0.242695 -0.048275 -0.968901 0 0 255
0.365204 0.881661 1.411847 0.083080 0.124338 0.988756 255 0 0
0.674802 0.674794 1.411847 0.083080 0.124338 0.988756 255 0 0
1.343091 1.343083 1.271655 0.083080 0.124338 0.988756 255 0 0
0.000008 -0.954302 1.411847 -0.029174 -0.146667 0.988756 255 0 0
-0.365188 -0.881660 1.411847 -0.029174 -0.146667 0.988756 255 0 0
-0.726863 -1.754823 1.271655 -0.029174 -0.146667 0.988756 255 0 0
-0.000000 -3.600000 0.775001 -0.195090 -0.980785 0.000000 0 255 0
0.000005 -0.000007 1.458730 -0.049065 -0.009762 0.998748 255 0 0
-0.954295 0.000000 1.411848 -0.049065 -0.009762 0.998748 255 0 0
-0.881652 -0.365196 1.411847 -0.049065 -0.009762 0.998748 255 0 0
-0.881653 0.365196 -1.411847 -0.041596 0.027794 -0.998748 0 0 255
-0.674786 0.674794 -1.411847 -0.041596 0.027794 -0.998748 0 0 255
0.000005 -0.000007 -1.458730 -0.041596 0.027794 -0.998748 0 0 255
0.000005 -0.000007 1.458730 -0.041596 0.027794 0.998748 255 0 0
-0.674786 0.674794 1.411847 -0.041596 0.027794 0.998748 255 0 0
-0.881653 0.365196 1.411847 -0.041596 0.027794 0.998748 255 0 0
-0.954295 0.000000 1.411848 -0.049065 0.009762 0.998748 255 0 0
0.000005 -0.000007 1.458730 -0.049065 0.009762 0.998748 255 0 0
-0.881653 0.365196 1.411847 -0.049065 0.009762 0.998748 255 0 0
2.545584 2.545585 -0.000001 0.555532 0.831413 -0.011680 0 255 0
2.539140 2.539131 -0.765903 0.555532 0.831413 -0.011680 0 255 0
1.374176 3.317535 -0.765903 0.555532 0.831413 -0.011680 0 255 0
1.081554 -2.611085 1.039502 0.048275 -0.242696 0.968901 255 0 0
0.726879 -1.754823 1.271655 0.048275 -0.242696 0.968901 255 0 0
0.000008 -1.899407 1.271655 0.048275 -0.242696 0.968901 255 0 0
0.365204 0.881661 -1.411847 0.029174 0.146667 -0.988756 0 0 255
2.611094 -1.081547 1.039502 0.284963 -0.190406 0.939437 255 0 0
1.998446 -1.998438 1.039502 0.284963 -0.190406 0.939437 255 0 0
2.539139 -2.539132 0.765903 0.284963 -0.190406 0.939437 255 0 0
2.826226 0.000000 -1.039502 0.242696 -0.048275 -0.968901 0 0 255
2.611094 -1.081547 -1.039502 0.242696 -0.048275 -0.968901 0 0 255
1.899414 0.000000 -1.271655 0.242696 -0.048275 -0.968901 0 0 255
-1.081539 2.611086 -1.039502 -0.190406 0.284963 -0.939437 0 0 255
-1.998431 1.998439 -1.039502 -0.190406 0.284963 -0.939437 0 0 255
-1.374160 3.317535 -0.765903 -0.190406 0.284963 -0.939437 0 0 255
-2.826211 0.000000 1.039501 -0.336137 0.066861 0.939437 255 0 0
-2.611078 1.081547 1.039502 -0.336137 0.066861 0.939437 255 0 0
-3.317528 1.374168 0.765903 -0.336137 0.066861 0.939437 255 0 0
-0.000000 -3.600000 0.775001 0.072559 -0.322602 0.943749 255 0 0
1.374175 -3.317535 0.765903 0.072559 -0.322602 0.943749 255 0 0
0.000008 -2.826218 1.039502 0.072559 -0.322602 0.943749 255 0 0
-1.377661 -3.325966 0.775001 -0.064206 -0.322786 0.944292 255 0 0
-0.000000 -3.600000 0.775001 -0.064206 -0.322786 0.944292 255 0 0
-1.081539 -2.611084 1.039502 -0.064206 -0.322786 0.944292 255 0 0
-2.545584 -2.545584 0.775001 -0.182843 -0.273644 0.944292 255 0 0
-1.377661 -3.325966 0.775001 -0.182843 -0.273644 0.944292 255 0 0
-1.998430 -1.998438 1.039502 -0.182843 -0.273644 0.944292 255 0 0
-3.325966 -1.377661 0.775001 -0.273643 -0.182843 0.944292 255 0 0
-2.545584 -2.545584 0.775001 -0.273643 -0.182843 0.944292 255 0 0
-2.611077 -1.081547 1.039502 -0.273643 -0.182843 0.944292 255 0 0
-3.600000 -0.000000 0.775001 -0.322783 -0.064206 0.944293 255 0 0
-3.325966 -1.377661 0.775001 -0.322783 -0.064206 0.944293 255 0 0
-2.826211 0.000000 1.039501 -0.322783 -0.064206 0.944293 255 0 0
2.539140 2.539131 0.765903 0.555532 0.831413 0.011680 0 255 0
2.545584 2.545585 -0.000001 0.555532 0.831413 0.011680 0 255 0
1.374176 3.317535 0.765903 0.555532 0.831413 0.011680 0 255 0
-0.000000 -3.600000 0.775001 0.201343 -0.979521 0.000000 0 255 0
1.374175 -3.317535 0.765903 0.201343 -0.979521 0.000000 0 255 0
-2.539124 2.539132 0.765903 -0.831413 0.555532 0.011693 0 255 0
-2.545584 2.545584 -0.000001 -0.831413 0.555532 0.011693 0 255 0
-3.317528 1.374168 0.765903 -0.831413 0.555532 0.011693 0 255 0
1.374176 3.317535 0.765903 0.195077 0.980718 0.011684 0 255 0
1.377659 3.325967 -0.000001 0.195077 0.980718 0.011684 0 255 0
0.000008 3.590874 0.765903 0.195077 0.980718 0.011684 0 255 0
2.545584 -2.545585 -0.000001 0.555532 -0.831413 0.011680 0 255 0
2.539139 -2.539132 0.765903 0.555532 -0.831413 0.011680 0 255 0
1.374175 -3.317535 0.765903 0.555532 -0.831413 0.011680 0 255 0
-3.600000 -0.000000 -0.000001 -0.979520 0.201349 0.000000 0 255 0
-3.600000 -0.000000 0.775001 -0.979520 0.201349 0.000000 0 255 0
-3.317528 1.374168 0.765903 -0.979520 0.201349 0.000000 0 255 0
3.325966 -1.377661 -0.000001 0.831413 -0.555533 0.011677 0 255 0
3.317543 -1.374168 0.765903 0.831413 -0.555533 0.011677 0 255 0
2.539139 -2.539132 0.765903 0.831413 -0.555533 0.011677 0 255 0
3.600000 0.000000 -0.000001 0.980718 -0.195077 0.011677 0 255 0
3.590881 -0.000000 0.765903 0.980718 -0.195077 0.011677 0 255 0
3.317543 -1.374168 0.765903 0.980718 -0.195077 0.011677 0 255 0
3.590881 -0.000000 0.765903 0.980719 0.195077 0.011677 0 255 0
3.600000 0.000000 -0.000001 0.980719 0.195077 0.011677 0 255 0
3.317543 1.374168 0.765903 0.980719 0.195077 0.011677 0 255 0
0.000008 3.590874 0.765903 -0.195077 0.980718 0.011687 0 255 0
0.000000 3.600000 -0.000001 -0.195077 0.980718 0.011687 0 255 0
-1.374160 3.317535 0.765903 -0.195077 0.980718 0.011687 0 255 0
-1.377661 -3.325966 -0.775001 -0.182843 -0.273644 -0.944292 0 0 255
-2.545584 -2.545584 -0.775001 -0.182843 -0.273644 -0.944292 0 0 255
-1.998430 -1.998438 -1.039502 -0.182843 -0.273644 -0.944292 0 0 255
0.000008 2.826219 -1.039502 0.066862 0.336136 -0.939437 0 0 255
0.000008 3.590874 -0.765903 0.066862 0.336136 -0.939437 0 0 255
1.081555 2.611085 -1.039502 0.066862 0.336136 -0.939437 0 0 255
-3.317528 1.374168 0.765903 -0.284963 0.190406 0.939437 255 0 0
-2.611078 1.081547 1.039502 -0.284963 0.190406 0.939437 255 0 0
-2.539124 2.539132 0.765903 -0.284963 0.190406 0.939437 255 0 0
0.000008 -2.826218 -1.039502 -0.048275 -0.242696 -0.968901 0 0 255
-1.081539 -2.611084 -1.039502 -0.048275 -0.242696 -0.968901 0 0 255
-0.726863 -1.754823 -1.271655 -0.048275 -0.242696 -0.968901 0 0 255
-2.545584 -2.545584 0.775001 -0.555571 -0.831469 0.000000 0 255 0
1.343091 1.343083 1.271655 0.124338 0.083080 0.988756 255 0 0
0.674802 0.674794 1.411847 0.124338 0.083080 0.988756 255 0 0
0.881669 0.365196 1.411847 0.124338 0.083080 0.988756 255 0 0
0.726879 1.754823 -1.271655 0.083080 0.124338 -0.988756 0 0 255
1.374175 -3.317535 0.765903 0.066862 -0.336137 0.939437 255 0 0
1.081554 -2.611085 1.039502 0.066862 -0.336137 0.939437 255 0 0
0.000008 -2.826218 1.039502 0.066862 -0.336137 0.939437 255 0 0
-0.674786 0.674794 1.411847 -0.027794 0.041596 0.998748 255 0 0
0.000005 -0.000007 1.458730 -0.027794 0.041596 0.998748 255 0 0
-0.365188 0.881661 1.411847 -0.027794 0.041596 0.998748 255 0 0
0.365204 0.881661 1.411847 0.029174 0.146667 0.988756 255 0 0
1.343091 -1.343083 1.271655 0.083080 -0.124338 0.988756 255 0 0
0.000008 3.590874 0.765903 0.066862 0.336136 0.939437 255 0 0
0.000008 2.826219 1.039502 0.066862 0.336136 0.939437 255 0 0
1.081555 2.611085 1.039502 0.066862 0.336136 0.939437 255 0 0
1.374175 -3.317535 0.765903 0.190406 -0.284963 0.939437 255 0 0
2.539139 -2.539132 0.765903 0.190406 -0.284963 0.939437 255 0 0
1.081554 -2.611085 1.039502 0.190406 -0.284963 0.939437 255 0 0
0.881669 0.365196 1.411847 0.146667 0.029174 0.988756 255 0 0
0.954310 0.000000 1.411847 0.146667 0.029174 0.988756 255 0 0
1.899414 0.000000 1.271655 0.146667 0.029174 0.988756 255 0 0
1.374176 3.317535 0.765903 0.066862 0.336137 0.939437 255 0 0
0.000008 3.590874 0.765903 0.066862 0.336137 0.939437 255 0 0
1.081555 2.611085 1.039502 0.066862 0.336137 0.939437 255 0 0
-3.600000 -0.000000 -0.000001 -0.980785 -0.195090 -0.000000 0 255 0
-3.325966 -1.377661 -0.000001 -0.980785 -0.195090 -0.000000 0 255 0
-3.325966 -1.377661 0.775001 -0.980785 -0.195090 -0.000000 0 255 0
-1.374160 3.317535 0.765903 -0.555532 0.831413 0.011690 0 255 0
-1.377660 3.325966 -0.000001 -0.555532 0.831413 0.011690 0 255 0
-2.539124 2.539132 0.765903 -0.555532 0.831413 0.011690 0 255 0
0.000008 0.954303 1.411847 0.009760 0.049066 0.998748 255 0 0
0.000005 -0.000007 1.458730 0.009760 0.049066 0.998748 255 0 0
0.365204 0.881661 1.411847 0.009760 0.049066 0.998748 255 0 0
0.000000 3.600000 -0.000001 -0.195077 0.980718 -0.011687 0 255 0
0.000008 3.590874 -0.765903 -0.195077 0.980718 -0.011687 0 255 0
-1.374160 3.317535 -0.765903 -0.195077 0.980718 -0.011687 0 255 0
0.674801 -0.674794 1.411847 0.041596 -0.027794 0.998748 255 0 0
0.881668 -0.365196 1.411847 0.041596 -0.027794 0.998748 255 0 0
0.000005 -0.000007 1.458730 0.041596 -0.027794 0.998748 255 0 0
-3.317528 1.374168 -0.765903 -0.284963 0.190406 -0.939437 0 0 255
-2.539124 2.539132 -0.765903 -0.284963 0.190406 -0.939437 0 0 255
-2.611078 1.081547 -1.039502 -0.284963 0.190406 -0.939437 0 0 255
0.000008 -2.826218 1.039502 0.048275 -0.242696 0.968901 255 0 0
-1.343075 -1.343083 1.271655 -0.124338 -0.083080 0.988756 255 0 0
-0.674786 -0.674793 1.411847 -0.124338 -0.083080 0.988756 255 0 0
-0.881652 -0.365196 1.411847 -0.124338 -0.083080 0.988756 255 0 0
0.000008 1.899407 -1.271655 -0.029174 0.146667 -0.988756 0 0 255
0.000008 0.954303 -1.411847 -0.029174 0.146667 -0.988756 0 0 255
-0.365188 0.881661 -1.411847 -0.029174 0.146667 -0.988756 0 0 255
-1.081539 2.611086 1.039502 -0.066862 0.336137 0.939437 255 0 0
0.000008 2.826219 1.039502 -0.066862 0.336137 0.939437 255 0 0
0.000008 3.590874 0.765903 -0.066862 0.336137 0.939437 255 0 0
-2.545584 -2.545584 -0.000001 -0.831470 -0.555570 -0.000000 0 255 0
-2.545584 -2.545584 0.775001 -0.831470 -0.555570 -0.000000 0 255 0
-3.325966 -1.377661 0.775001 -0.831470 -0.555570 -0.000000 0 255 0
-3.325966 -1.377661 -0.000001 -0.831470 -0.555570 0.000000 0 255 0
-1.754816 0.726872 -1.271655 -0.242696 0.048275 -0.968901 0 0 255
-1.899399 0.000000 -1.271655 -0.242696 0.048275 -0.968901 0 0 255
-2.611078 1.081547 -1.039502 -0.242696 0.048275 -0.968901 0 0 255
2.826226 0.000000 -1.039502 0.242695 0.048275 -0.968901 0 0 255
1.899414 0.000000 -1.271655 0.242695 0.048275 -0.968901 0 0 255
1.754831 0.726871 -1.271655 0.242695 0.048275 -0.968901 0 0 255
2.826226 0.000000 -1.039502 0.336137 -0.066862 -0.939437 0 0 255
3.590881 -0.000000 -0.765903 0.336137 -0.066862 -0.939437 0 0 255
2.611094 -1.081547 -1.039502 0.336137 -0.066862 -0.939437 0 0 255
1.343091 1.343083 -1.271655 0.205747 0.137476 -0.968901 0 0 255
1.998446 1.998438 -1.039502 0.205747 0.137476 -0.968901 0 0 255
1.754831 0.726871 -1.271655 0.205747 0.137476 -0.968901 0 0 255
1.998446 -1.998438 -1.039502 0.137476 -0.205747 -0.968901 0 0 255
1.081554 -2.611085 -1.039502 0.137476 -0.205747 -0.968901 0 0 255
0.726879 -1.754823 -1.271655 0.137476 -0.205747 -0.968901 0 0 255
-1.343076 1.343084 -1.271655 -0.205747 0.137476 -0.968901 0 0 255
-1.754816 0.726872 -1.271655 -0.205747 0.137476 -0.968901 0 0 255
-2.611078 1.081547 -1.039502 -0.205747 0.137476 -0.968901 0 0 255
1.377659 3.325967 -0.000001 0.195077 0.980718 -0.011684 0 255 0
1.374176 3.317535 -0.765903 0.195077 0.980718 -0.011684 0 255 0
0.000008 3.590874 -0.765903 0.195077 0.980718 -0.011684 0 255 0
-1.081539 -2.611084 1.039502 -0.182843 -0.273644 0.944292 255 0 0
0.954310 0.000000 1.411847 0.146667 -0.029174 0.988756 255 0 0
0.881668 -0.365196 1.411847 0.146667 -0.029174 0.988756 255 0 0
1.754830 -0.726871 1.271655 0.146667 -0.029174 0.988756 255 0 0
-2.826211 0.000000 1.039501 -0.242696 0.048275 0.968900 255 0 0
-1.899399 0.000000 1.271655 -0.242696 0.048275 0.968900 255 0 0
-1.754816 0.726872 1.271655 -0.242696 0.048275 0.968900 255 0 0
0.000008 2.826219 -1.039502 0.048275 0.242696 -0.968901 0 0 255
2.539140 2.539131 0.765903 0.190406 0.284963 0.939437 255 0 0
-3.325966 -1.377661 -0.775001 -0.831469 -0.555570 0.000000 0 255 0
0.000008 -1.899407 1.271655 -0.029174 -0.146667 0.988756 255 0 0
-2.611077 -1.081547 -1.039502 -0.205748 -0.137476 -0.968901 0 0 255
-1.754815 -0.726871 -1.271655 -0.205748 -0.137476 -0.968901 0 0 255
-1.343075 -1.343083 -1.271655 -0.205748 -0.137476 -0.968901 0 0 255
2.611094 1.081547 -1.039502 0.205747 0.137476 -0.968901 0 0 255
-1.343076 1.343084 -1.271655 -0.137476 0.205747 -0.968901 0 0 255
-1.998431 1.998439 -1.039502 -0.137476 0.205747 -0.968901 0 0 255
-0.726864 1.754823 -1.271655 -0.137476 0.205747 -0.968901 0 0 255
2.539140 2.539131 0.765903 0.284963 0.190406 0.939437 255 0 0
1.998446 1.998438 1.039502 0.284963 0.190406 0.939437 255 0 0
2.611094 1.081547 1.039502 0.284963 0.190406 0.939437 255 0 0
-0.365188 0.881661 -1.411847 -0.009760 0.049066 -0.998748 0 0 255
0.000008 0.954303 -1.411847 -0.009760 0.049066 -0.998748 0 0 255
0.000005 -0.000007 -1.458730 -0.009760 0.049066 -0.998748 0 0 255
0.365204 0.881661 -1.411847 0.027794 0.041596 -0.998748 0 0 255
0.674802 0.674794 -1.411847 0.027794 0.041596 -0.998748 0 0 255
0.000005 -0.000007 -1.458730 0.027794 0.041596 -0.998748 0 0 255
0.674802 0.674794 -1.411847 0.041596 0.027794 -0.998748 0 0 255
0.881669 0.365196 -1.411847 0.041596 0.027794 -0.998748 0 0 255
0.000005 -0.000007 -1.458730 0.041596 0.027794 -0.998748 0 0 255
0.365203 -0.881660 -1.411847 0.009760 -0.049066 -0.998748 0 0 255
0.000008 -0.954302 -1.411847 0.009760 -0.049066 -0.998748 0 0 255
0.000005 -0.000007 -1.458730 0.009760 -0.049066 -0.998748 0 0 255
-3.317528 1.374168 -0.765903 -0.336137 0.066861 -0.939437 0 0 255
-2.611078 1.081547 -1.039502 -0.336137 0.066861 -0.939437 0 0 255
-2.826211 0.000000 -1.039501 -0.336137 0.066861 -0.939437 0 0 255
0.000005 -0.000007 1.458730 -0.027794 -0.041597 0.998748 255 0 0
-0.674786 -0.674793 1.411847 -0.027794 -0.041597 0.998748 255 0 0
-0.365188 -0.881660 1.411847 -0.027794 -0.041597 0.998748 255 0 0
1.081554 -2.611085 1.039502 0.137476 -0.205747 0.968901 255 0 0
1.998446 -1.998438 1.039502 0.137476 -0.205747 0.968901 255 0 0
0.726879 -1.754823 1.271655 0.137476 -0.205747 0.968901 255 0 0
0.954310 0.000000 -1.411847 0.049066 -0.009760 -0.998748 0 0 255
0.881668 -0.365196 -1.411847 0.049066 -0.009760 -0.998748 0 0 255
0.000005 -0.000007 -1.458730 0.049066 -0.009760 -0.998748 0 0 255
0.881668 -0.365196 -1.411847 0.041596 -0.027794 -0.998748 0 0 255
0.674801 -0.674794 -1.411847 0.041596 -0.027794 -0.998748 0 0 255
0.000005 -0.000007 -1.458730 0.041596 -0.027794 -0.998748 0 0 255
-2.539124 2.539132 0.765903 -0.190406 0.284963 0.939437 255 0 0
-1.998431 1.998439 1.039502 -0.190406 0.284963 0.939437 255 0 0
-1.374160 3.317535 0.765903 -0.190406 0.284963 0.939437 255 0 0
3.317543 -1.374168 -0.765903 0.284963 -0.190406 -0.939437 0 0 255
2.539139 -2.539132 -0.765903 0.284963 -0.190406 -0.939437 0 0 255
2.611094 -1.081547 -1.039502 0.284963 -0.190406 -0.939437 0 0 255
-1.998430 -1.998438 -1.039502 -0.205748 -0.137476 -0.968901 0 0 255
-0.365188 -0.881660 1.411847 -0.083080 -0.124338 0.988756 255 0 0
-0.674786 -0.674793 1.411847 -0.083080 -0.124338 0.988756 255 0 0
-1.343075 -1.343083 1.271655 -0.083080 -0.124338 0.988756 255 0 0
3.590881 -0.000000 0.765903 0.336137 -0.066862 0.939437 255 0 0
2.826226 0.000000 1.039502 0.336137 -0.066862 0.939437 255 0 0
2.611094 -1.081547 1.039502 0.336137 -0.066862 0.939437 255 0 0
2.611094 -1.081547 1.039502 0.205747 -0.137476 0.968901 255 0 0
1.754830 -0.726871 1.271655 0.205747 -0.137476 0.968901 255 0 0
1.998446 -1.998438 1.039502 0.205747 -0.137476 0.968901 255 0 0
-1.754816 0.726872 -1.271655 -0.146666 0.029176 -0.988756 0 0 255
-0.881653 0.365196 -1.411847 -0.146666 0.029176 -0.988756 0 0 255
-0.954295 0.000000 -1.411848 -0.146666 0.029176 -0.988756 0 0 255
1.343091 -1.343083 1.271655 0.137476 -0.205747 0.968901 255 0 0
3.317543 1.374168 0.765903 0.336137 0.066862 0.939437 255 0 0
2.611094 1.081547 1.039502 0.336137 0.066862 0.939437 255 0 0
3.590881 -0.000000 0.765903 0.336137 0.066862 0.939437 255 0 0
0.000008 3.590874 -0.765903 0.066862 0.336137 -0.939437 0 0 255
1.374176 3.317535 -0.765903 0.066862 0.336137 -0.939437 0 0 255
1.081555 2.611085 -1.039502 0.066862 0.336137 -0.939437 0 0 255
-3.600000 -0.000000 0.775001 -0.980785 -0.195090 0.000000 0 255 0
1.081554 -2.611085 -1.039502 0.066862 -0.336137 -0.939437 0 0 255
1.374175 -3.317535 -0.765903 0.066862 -0.336137 -0.939437 0 0 255
0.000008 -2.826218 -1.039502 0.066862 -0.336137 -0.939437 0 0 255
0.000008 -2.826218 -1.039502 -0.064206 -0.322786 -0.944292 0 0 255
-0.000000 -3.600000 -0.775001 -0.064206 -0.322786 -0.944292 0 0 255
-1.081539 -2.611084 -1.039502 -0.064206 -0.322786 -0.944292 0 0 255
-1.081539 -2.611084 -1.039502 -0.182843 -0.273644 -0.944292 0 0 255
-1.998430 -1.998438 -1.039502 -0.273643 -0.182843 -0.944292 0 0 255
-2.545584 -2.545584 -0.775001 -0.273643 -0.182843 -0.944292 0 0 255
-2.611077 -1.081547 -1.039502 -0.273643 -0.182843 -0.944292 0 0 255
-2.611077 -1.081547 -1.039502 -0.322784 -0.064205 -0.944292 0 0 255
-3.325966 -1.377661 -0.775001 -0.322784 -0.064205 -0.944292 0 0 255
-2.826211 0.000000 -1.039501 -0.322784 -0.064205 -0.944292 0 0 255
1.377659 3.325967 -0.000001 0.555532 0.831413 -0.011679 0 255 0
2.545584 2.545585 -0.000001 0.555532 0.831413 -0.011679 0 255 0
1.374176 3.317535 -0.765903 0.555532 0.831413 -0.011679 0 255 0
1.377660 -3.325967 -0.000001 0.195077 -0.980718 -0.011684 0 255 0
-0.000000 -3.600000 -0.000001 0.195077 -0.980718 -0.011684 0 255 0
1.374175 -3.317535 -0.765903 0.195077 -0.980718 -0.011684 0 255 0
-3.325966 1.377660 -0.000001 -0.831413 0.555532 -0.011693 0 255 0
-2.545584 2.545584 -0.000001 -0.831413 0.555532 -0.011693 0 255 0
-3.317528 1.374168 -0.765903 -0.831413 0.555532 -0.011693 0 255 0
0.000000 3.600000 -0.000001 0.195077 0.980718 -0.011683 0 255 0
1.377659 3.325967 -0.000001 0.195077 0.980718 -0.011683 0 255 0
0.000008 3.590874 -0.765903 0.195077 0.980718 -0.011683 0 255 0
1.374175 -3.317535 -0.765903 0.555532 -0.831413 -0.011680 0 255 0
2.539139 -2.539132 -0.765903 0.555532 -0.831413 -0.011680 0 255 0
2.545584 -2.545585 -0.000001 0.555532 -0.831413 -0.011680 0 255 0
-3.317528 1.374168 -0.765903 -0.979520 0.201349 0.000000 0 255 0
-3.600000 -0.000000 -0.775001 -0.979520 0.201349 0.000000 0 255 0
2.539139 -2.539132 -0.765903 0.831413 -0.555533 -0.011677 0 255 0
3.317543 -1.374168 -0.765903 0.831413 -0.555533 -0.011677 0 255 0
3.325966 -1.377661 -0.000001 0.831413 -0.555533 -0.011677 0 255 0
3.317543 -1.374168 -0.765903 0.980718 -0.195077 -0.011677 0 255 0
3.590881 -0.000000 -0.765903 0.980718 -0.195077 -0.011677 0 255 0
3.600000 0.000000 -0.000001 0.980718 -0.195077 -0.011677 0 255 0
3.325966 1.377661 -0.000001 0.980718 0.195078 -0.011675 0 255 0
3.600000 0.000000 -0.000001 0.980718 0.195078 -0.011675 0 255 0
3.317543 1.374168 -0.765903 0.980718 0.195078 -0.011675 0 255 0
-1.377660 3.325966 -0.000001 -0.195077 0.980718 -0.011686 0 255 0
0.000000 3.600000 -0.000001 -0.195077 0.980718 -0.011686 0 255 0
-1.374160 3.317535 -0.765903 -0.195077 0.980718 -0.011686 0 255 0
1.998446 1.998438 -1.039502 0.284963 0.190406 -0.939437 0 0 255
0.726879 1.754823 -1.271655 0.137476 0.205747 -0.968901 0 0 255
1.081555 2.611085 -1.039502 0.137476 0.205747 -0.968901 0 0 255
1.343091 1.343083 -1.271655 0.137476 0.205747 -0.968901 0 0 255
2.545584 2.545585 -0.000001 0.831413 0.555532 -0.011676 0 255 0
3.325966 1.377661 -0.000001 0.831413 0.555532 -0.011676 0 255 0
2.539140 2.539131 -0.765903 0.831413 0.555532 -0.011676 0 255 0
-0.726864 1.754823 -1.271655 -0.029174 0.146667 -0.988756 0 0 255
3.317543 -1.374168 0.765903 0.336137 -0.066862 0.939437 255 0 0
0.674801 -0.674794 -1.411847 0.027794 -0.041596 -0.998748 0 0 255
0.365203 -0.881660 -1.411847 0.027794 -0.041596 -0.998748 0 0 255
0.000005 -0.000007 -1.458730 0.027794 -0.041596 -0.998748 0 0 255
-0.365188 0.881661 1.411847 -0.029174 0.146667 0.988756 255 0 0
0.000008 0.954303 1.411847 -0.029174 0.146667 0.988756 255 0 0
0.000008 1.899407 1.271655 -0.029174 0.146667 0.988756 255 0 0
0.881669 0.365196 1.411847 0.049066 0.009760 0.998748 255 0 0
0.000005 -0.000007 1.458730 0.049066 0.009760 0.998748 255 0 0
0.954310 0.000000 1.411847 0.049066 0.009760 0.998748 255 0 0
0.000008 1.899407 -1.271655 -0.048275 0.242696 -0.968901 0 0 255
-1.998431 1.998439 -1.039502 -0.205747 0.137476 -0.968901 0 0 255
0.000008 -2.826218 1.039502 -0.048275 -0.242696 0.968901 255 0 0
0.000008 -1.899407 1.271655 -0.048275 -0.242696 0.968901 255 0 0
-0.726863 -1.754823 1.271655 -0.048275 -0.242696 0.968901 255 0 0
2.611094 1.081547 1.039502 0.242696 0.048275 0.968901 255 0 0
1.754831 0.726871 1.271655 0.242696 0.048275 0.968901 255 0 0
2.826226 0.000000 1.039502 0.242696 0.048275 0.968901 255 0 0
1.899414 0.000000 1.271655 0.146667 -0.029174 0.988756 255 0 0
2.611094 -1.081547 -1.039502 0.205747 -0.137476 -0.968901 0 0 255
1.998446 -1.998438 -1.039502 0.205747 -0.137476 -0.968901 0 0 255
1.343091 -1.343083 -1.271655 0.205747 -0.137476 -0.968901 0 0 255
-1.081539 -2.611084 1.039502 -0.137476 -0.205747 0.968901 255 0 0
-0.726863 -1.754823 1.271655 -0.137476 -0.205747 0.968901 255 0 0
-1.343075 -1.343083 1.271655 -0.137476 -0.205747 0.968901 255 0 0
-1.081539 2.611086 1.039502 -0.137476 0.205747 0.968901 255 0 0
1.343091 -1.343083 -1.271655 0.137476 -0.205747 -0.968901 0 0 255
0.000008 -1.899407 -1.271655 0.029174 -0.146667 -0.988756 0 0 255
0.000008 -0.954302 -1.411847 0.029174 -0.146667 -0.988756 0 0 255
0.365203 -0.881660 -1.411847 0.029174 -0.146667 -0.988756 0 0 255
-1.343075 -1.343083 -1.271655 -0.083080 -0.124338 -0.988756 0 0 255
-0.674786 -0.674793 -1.411847 -0.083080 -0.124338 -0.988756 0 0 255
-0.365188 -0.881660 -1.411847 -0.083080 -0.124338 -0.988756 0 0 255
-1.081539 -2.611084 -1.039502 -0.137476 -0.205747 -0.968901 0 0 255
-1.998430 -1.998438 -1.039502 -0.137476 -0.205747 -0.968901 0 0 255
-1.343075 -1.343083 -1.271655 -0.137476 -0.205747 -0.968901 0 0 255
1.998446 1.998438 1.039502 0.137476 0.205747 0.968901 255 0 0
1.081555 2.611085 1.039502 0.137476 0.205747 0.968901 255 0 0
1.343091 1.343083 1.271655 0.137476 0.205747 0.968901 255 0 0
0.000008 -1.899407 -1.271655 -0.048275 -0.242696 -0.968901 0 0 255
-0.881652 -0.365196 -1.411847 -0.146666 -0.029177 -0.988756 0 0 255
-1.754815 -0.726871 -1.271655 -0.146666 -0.029177 -0.988756 0 0 255
-0.954295 0.000000 -1.411848 -0.146666 -0.029177 -0.988756 0 0 255
-1.998430 -1.998438 1.039502 -0.273643 -0.182843 0.944292 255 0 0
3.317543 -1.374168 -0.765903 0.336137 -0.066862 -0.939437 0 0 255
-2.545584 2.545584 -0.000001 -0.555532 0.831413 -0.011690 0 255 0
-1.377660 3.325966 -0.000001 -0.555532 0.831413 -0.011690 0 255 0
-2.539124 2.539132 -0.765903 -0.555532 0.831413 -0.011690 0 255 0
-0.726863 -1.754823 -1.271655 -0.083080 -0.124338 -0.988756 0 0 255
1.374176 3.317535 -0.765903 0.190406 0.284963 -0.939437 0 0 255
2.539140 2.539131 -0.765903 0.190406 0.284963 -0.939437 0 0 255
1.998446 1.998438 -1.039502 0.190406 0.284963 -0.939437 0 0 255
-2.611078 1.081547 1.039502 -0.242696 0.048274 0.968901 255 0 0
-2.826211 0.000000 1.039501 -0.242696 0.048274 0.968901 255 0 0
-1.754816 0.726872 1.271655 -0.242696 0.048274 0.968901 255 0 0
-1.377661 -3.325966 -0.775001 -0.195090 -0.980785 0.000000 0 255 0
-3.600000 -0.000000 0.775001 -0.322598 0.072560 0.943751 255 0 0
-2.826211 0.000000 1.039501 -0.322598 0.072560 0.943751 255 0 0
-3.317528 1.374168 0.765903 -0.322598 0.072560 0.943751 255 0 0
1.998446 1.998438 1.039502 0.205747 0.137476 0.968901 255 0 0
1.343091 1.343083 1.271655 0.205747 0.137476 0.968901 255 0 0
1.754831 0.726871 1.271655 0.205747 0.137476 0.968901 255 0 0
0.726879 -1.754823 -1.271655 0.048275 -0.242696 -0.968901 0 0 255
1.081554 -2.611085 -1.039502 0.048275 -0.242696 -0.968901 0 0 255
0.000008 -1.899407 -1.271655 0.048275 -0.242696 -0.968901 0 0 255
0.674802 0.674794 -1.411847 0.124338 0.083080 -0.988756 0 0 255
1.343091 1.343083 -1.271655 0.124338 0.083080 -0.988756 0 0 255
0.881669 0.365196 -1.411847 0.124338 0.083080 -0.988756 0 0 255
3.325966 1.377661 -0.000001 0.831413 0.555532 -0.011677 0 255 0
3.317543 1.374168 -0.765903 0.831413 0.555532 -0.011677 0 255 0
2.539140 2.539131 -0.765903 0.831413 0.555532 -0.011677 0 255 0
1.754831 0.726871 1.271655 0.146667 0.029174 0.988756 255 0 0
-2.611077 -1.081547 1.039502 -0.242696 -0.048275 0.968901 255 0 0
-1.754815 -0.726871 1.271655 -0.242696 -0.048275 0.968901 255 0 0
-1.899399 0.000000 1.271655 -0.242696 -0.048275 0.968901 255 0 0
3.600000 0.000000 -0.000001 0.980718 0.195077 -0.011677 0 255 0
3.590881 -0.000000 -0.765903 0.980718 0.195077 -0.011677 0 255 0
3.317543 1.374168 -0.765903 0.980718 0.195077 -0.011677 0 255 0
3.325966 -1.377661 -0.000001 0.980718 -0.195077 -0.011675 0 255 0
3.317543 -1.374168 -0.765903 0.980718 -0.195077 -0.011675 0 255 0
3.600000 0.000000 -0.000001 0.980718 -0.195077 -0.011675 0 255 0
-0.674786 -0.674793 -1.411847 -0.124338 -0.083080 -0.988756 0 0 255
-1.343075 -1.343083 -1.271655 -0.124338 -0.083080 -0.988756 0 0 255
-0.881652 -0.365196 -1.411847 -0.124338 -0.083080 -0.988756 0 0 255
2.545584 -2.545585 -0.000001 0.831413 -0.555532 -0.011677 0 255 0
2.539139 -2.539132 -0.765903 0.831413 -0.555532 -0.011677 0 255 0
3.325966 -1.377661 -0.000001 0.831413 -0.555532 -0.011677 0 255 0
-3.325966 1.377660 -0.000001 -0.980718 0.195077 -0.011694 0 255 0
-3.317528 1.374168 -0.765903 -0.980718 0.195077 -0.011694 0 255 0
-3.600000 -0.000000 -0.000001 -0.980718 0.195077 -0.011694 0 255 0
1.377660 -3.325967 -0.000001 0.555532 -0.831413 -0.011681 0 255 0
1.374175 -3.317535 -0.765903 0.555532 -0.831413 -0.011681 0 255 0
2.545584 -2.545585 -0.000001 0.555532 -0.831413 -0.011681 0 255 0
-1.998431 1.998439 1.039502 -0.284963 0.190406 0.939437 255 0 0
-2.539124 2.539132 -0.765903 -0.831413 0.555532 -0.011693 0 255 0
-1.377661 -3.325966 -0.775001 -0.064206 -0.322786 -0.944292 0 0 255
1.899414 0.000000 -1.271655 0.146667 -0.029174 -0.988756 0 0 255
1.754830 -0.726871 -1.271655 0.146667 -0.029174 -0.988756 0 0 255
0.954310 0.000000 -1.411847 0.146667 -0.029174 -0.988756 0 0 255
-3.325966 -1.377661 -0.775001 -0.322783 -0.064206 -0.944293 0 0 255
-3.600000 -0.000000 -0.775001 -0.322783 -0.064206 -0.944293 0 0 255
-2.826211 0.000000 -1.039501 -0.322783 -0.064206 -0.944293 0 0 255
-3.325966 -1.377661 -0.775001 -0.273643 -0.182843 -0.944292 0 0 255
1.343091 -1.343083 -1.271655 0.083080 -0.124338 -0.988756 0 0 255
0.726879 -1.754823 -1.271655 0.083080 -0.124338 -0.988756 0 0 255
0.365203 -0.881660 -1.411847 0.083080 -0.124338 -0.988756 0 0 255
1.998446 -1.998438 -1.039502 0.190406 -0.284963 -0.939437 0 0 255
2.539139 -2.539132 -0.765903 0.190406 -0.284963 -0.939437 0 0 255
1.081554 -2.611085 -1.039502 0.190406 -0.284963 -0.939437 0 0 255
1.754830 -0.726871 -1.271655 0.205747 -0.137476 -0.968901 0 0 255
1.343091 -1.343083 1.271655 0.205747 -0.137476 0.968901 255 0 0
-2.545584 2.545584 -0.000001 -0.555532 0.831413 0.011690 0 255 0
-0.881653 0.365196 -1.411847 -0.124338 0.083080 -0.988756 0 0 255
-1.754816 0.726872 -1.271655 -0.124338 0.083080 -0.988756 0 0 255
-0.674786 0.674794 -1.411847 -0.124338 0.083080 -0.988756 0 0 255
-1.081539 2.611086 1.039502 -0.190406 0.284963 0.939437 255 0 0
1.374175 -3.317535 -0.765903 0.190406 -0.284963 -0.939437 0 0 255
1.343091 -1.343083 -1.271655 0.124338 -0.083080 -0.988756 0 0 255
0.674801 -0.674794 -1.411847 0.124338 -0.083080 -0.988756 0 0 255
1.754830 -0.726871 -1.271655 0.124338 -0.083080 -0.988756 0 0 255
0.881669 0.365196 -1.411847 0.049066 0.009760 -0.998748 0 0 255
0.954310 0.000000 -1.411847 0.049066 0.009760 -0.998748 0 0 255
0.000005 -0.000007 -1.458730 0.049066 0.009760 -0.998748 0 0 255
1.899414 0.000000 -1.271655 0.146667 0.029174 -0.988756 0 0 255
0.954310 0.000000 -1.411847 0.146667 0.029174 -0.988756 0 0 255
0.881669 0.365196 -1.411847 0.146667 0.029174 -0.988756 0 0 255
0.000008 -0.954302 1.411847 -0.009760 -0.049067 0.998748 255 0 0
0.000005 -0.000007 1.458730 -0.009760 -0.049067 0.998748 255 0 0
-0.365188 -0.881660 1.411847 -0.009760 -0.049067 0.998748 255 0 0
-1.754815 -0.726871 -1.271655 -0.242696 -0.048275 -0.968901 0 0 255
-2.611077 -1.081547 -1.039502 -0.242696 -0.048275 -0.968901 0 0 255
-1.899399 0.000000 -1.271655 -0.242696 -0.048275 -0.968901 0 0 255
2.611094 1.081547 -1.039502 0.242696 0.048275 -0.968901 0 0 255
2.826226 0.000000 -1.039502 0.242696 0.048275 -0.968901 0 0 255
1.754831 0.726871 -1.271655 0.242696 0.048275 -0.968901 0 0 255
0.000008 -2.826218 -1.039502 0.048275 -0.242696 -0.968901 0 0 255
0.881668 -0.365196 -1.411847 0.124338 -0.083080 -0.988756 0 0 255
0.726879 -1.754823 1.271655 0.029174 -0.146667 0.988756 255 0 0
0.365203 -0.881660 1.411847 0.029174 -0.146667 0.988756 255 0 0
0.000008 -1.899407 1.271655 0.029174 -0.146667 0.988756 255 0 0
-3.600000 -0.000000 -0.775001 -0.980785 -0.195090 0.000000 0 255 0
-3.325966 -1.377661 -0.775001 -0.980785 -0.195090 0.000000 0 255 0
1.754830 -0.726871 1.271655 0.242695 -0.048275 0.968901 255 0 0
0.726879 1.754823 1.271655 0.137476 0.205747 0.968901 255 0 0
-1.374160 3.317535 -0.765903 -0.066862 0.336137 -0.939437 0 0 255
2.611094 1.081547 -1.039502 0.336137 0.066862 -0.939437 0 0 255
3.317543 1.374168 -0.765903 0.336137 0.066862 -0.939437 0 0 255
2.826226 0.000000 -1.039502 0.336137 0.066862 -0.939437 0 0 255
-0.954295 0.000000 1.411848 -0.146666 0.029176 0.988756 255 0 0
-0.881653 0.365196 1.411847 -0.146666 0.029176 0.988756 255 0 0
-1.754816 0.726872 1.271655 -0.146666 0.029176 0.988756 255 0 0
-1.081539 2.611086 -1.039502 -0.137476 0.205747 -0.968901 0 0 255
0.674801 -0.674794 -1.411847 0.083080 -0.124338 -0.988756 0 0 255
-0.726863 -1.754823 -1.271655 -0.137476 -0.205747 -0.968901 0 0 255
-1.754815 -0.726871 1.271655 -0.124338 -0.083080 0.988756 255 0 0
3.317543 -1.374168 0.765903 0.284963 -0.190406 0.939437 255 0 0
2.611094 1.081547 1.039502 0.205747 0.137476 0.968901 255 0 0
3.317543 1.374168 0.765903 0.831413 0.555532 0.011677 0 255 0
3.325966 1.377661 -0.000001 0.831413 0.555532 0.011677 0 255 0
2.539140 2.539131 0.765903 0.831413 0.555532 0.011677 0 255 0
-1.754815 -0.726871 -1.271655 -0.124338 -0.083080 -0.988756 0 0 255
-1.998431 1.998439 -1.039502 -0.284963 0.190406 -0.939437 0 0 255
1.754831 0.726871 -1.271655 0.124338 0.083080 -0.988756 0 0 255
0.000000 3.600000 -0.000001 -0.195077 0.980718 0.011686 0 255 0
-1.377660 3.325966 -0.000001 -0.195077 0.980718 0.011686 0 255 0
-1.374160 3.317535 0.765903 -0.195077 0.980718 0.011686 0 255 0
3.600000 0.000000 -0.000001 0.980718 0.195077 0.011675 0 255 0
3.325966 1.377661 -0.000001 0.980718 0.195077 0.011675 0 255 0
3.317543 1.374168 0.765903 0.980718 0.195077 0.011675 0 255 0
3.325966 -1.377661 -0.000001 0.980718 -0.195077 0.011675 0 255 0
3.600000 0.000000 -0.000001 0.980718 -0.195077 0.011675 0 255 0
3.317543 -1.374168 0.765903 0.980718 -0.195077 0.011675 0 255 0
1.998446 -1.998438 1.039502 0.190406 -0.284963 0.939437 255 0 0
-3.325966 1.377660 -0.000001 -0.980718 0.195077 0.011694 0 255 0
-3.600000 -0.000000 -0.000001 -0.980718 0.195077 0.011694 0 255 0
-3.317528 1.374168 0.765903 -0.980718 0.195077 0.011694 0 255 0
1.377660 -3.325967 -0.000001 0.555532 -0.831413 0.011681 0 255 0
2.545584 -2.545585 -0.000001 0.555532 -0.831413 0.011681 0 255 0
1.374175 -3.317535 0.765903 0.555532 -0.831413 0.011681 0 255 0
1.377659 3.325967 -0.000001 0.195077 0.980718 0.011683 0 255 0
0.000000 3.600000 -0.000001 0.195077 0.980718 0.011683 0 255 0
0.000008 3.590874 0.765903 0.195077 0.980718 0.011683 0 255 0
-3.325966 1.377660 -0.000001 -0.831413 0.555532 0.011693 0 255 0
-1.998430 -1.998438 1.039502 -0.137476 -0.205747 0.968901 255 0 0
2.545584 2.545585 -0.000001 0.555532 0.831413 0.011679 0 255 0
1.377659 3.325967 -0.000001 0.555532 0.831413 0.011679 0 255 0
1.374176 3.317535 0.765903 0.555532 0.831413 0.011679 0 255 0
-3.325966 -1.377661 0.775001 -0.322784 -0.064205 0.944292 255 0 0
-2.611077 -1.081547 1.039502 -0.322784 -0.064205 0.944292 255 0 0
-2.826211 0.000000 1.039501 -0.322784 -0.064205 0.944292 255 0 0
-1.374160 3.317535 -0.765903 -0.555532 0.831413 -0.011690 0 255 0
-0.726863 -1.754823 1.271655 -0.083080 -0.124338 0.988756 255 0 0
0.000008 -2.826218 1.039502 -0.064206 -0.322786 0.944292 255 0 0
-1.899399 0.000000 -1.271655 -0.146668 0.029174 -0.988755 0 0 255
-1.754816 0.726872 -1.271655 -0.146668 0.029174 -0.988755 0 0 255
-0.954295 0.000000 -1.411848 -0.146668 0.029174 -0.988755 0 0 255
-0.726864 1.754823 1.271655 -0.029174 0.146667 0.988756 255 0 0
0.365203 -0.881660 1.411847 0.027794 -0.041596 0.998748 255 0 0
0.674801 -0.674794 1.411847 0.027794 -0.041596 0.998748 255 0 0
0.000005 -0.000007 1.458730 0.027794 -0.041596 0.998748 255 0 0
-0.365188 -0.881660 -1.411847 -0.027794 -0.041597 -0.998748 0 0 255
-0.674786 -0.674793 -1.411847 -0.027794 -0.041597 -0.998748 0 0 255
0.000005 -0.000007 -1.458730 -0.027794 -0.041597 -0.998748 0 0 255
0.000008 -0.954302 1.411847 0.009760 -0.049066 0.998748 255 0 0
0.365203 -0.881660 1.411847 0.009760 -0.049066 0.998748 255 0 0
0.000005 -0.000007 1.458730 0.009760 -0.049066 0.998748 255 0 0
-0.954295 0.000000 -1.411848 -0.049065 0.009762 -0.998748 0 0 255
-0.881653 0.365196 -1.411847 -0.049065 0.009762 -0.998748 0 0 255
0.000005 -0.000007 -1.458730 -0.049065 0.009762 -0.998748 0 0 255
-0.674786 -0.674793 1.411847 -0.041597 -0.027794 0.998748 255 0 0
0.000005 -0.000007 1.458730 -0.041597 -0.027794 0.998748 255 0 0
-0.881652 -0.365196 1.411847 -0.041597 -0.027794 0.998748 255 0 0
-2.539124 2.539132 -0.765903 -0.190406 0.284963 -0.939437 0 0 255
0.726879 1.754823 1.271655 0.083080 0.124338 0.988756 255 0 0
0.881668 -0.365196 -1.411847 0.146667 -0.029174 -0.988756 0 0 255
0.726879 -1.754823 -1.271655 0.029174 -0.146667 -0.988756 0 0 255
1.343091 -1.343083 1.271655 0.124338 -0.083080 0.988756 255 0 0
1.754830 -0.726871 1.271655 0.124338 -0.083080 0.988756 255 0 0
0.881668 -0.365196 1.411847 0.124338 -0.083080 0.988756 255 0 0
1.374175 -3.317535 -0.765903 0.072559 -0.322602 -0.943749 0 0 255
-0.000000 -3.600000 -0.775001 0.072559 -0.322602 -0.943749 0 0 255
0.000008 -2.826218 -1.039502 0.072559 -0.322602 -0.943749 0 0 255
0.674801 -0.674794 1.411847 0.124338 -0.083080 0.988756 255 0 0
-0.000000 -3.600000 -0.775001 -0.195090 -0.980785 -0.000000 0 255 0
0.000008 1.899407 1.271655 -0.048275 0.242696 0.968901 255 0 0
-1.998430 -1.998438 1.039502 -0.205748 -0.137476 0.968901 255 0 0
1.754831 0.726871 1.271655 0.124338 0.083080 0.988756 255 0 0
1.081555 2.611085 -1.039502 0.190406 0.284963 -0.939437 0 0 255
3.317543 1.374168 0.765903 0.284963 0.190406 0.939437 255 0 0
-1.081539 -2.611084 1.039502 -0.048275 -0.242696 0.968901 255 0 0
3.590881 -0.000000 -0.765903 0.336137 0.066862 -0.939437 0 0 255
1.998446 -1.998438 -1.039502 0.284963 -0.190406 -0.939437 0 0 255
-1.343076 1.343084 -1.271655 -0.124338 0.083080 -0.988756 0 0 255
-1.374160 3.317535 0.765903 -0.066862 0.336137 0.939437 255 0 0
2.826226 0.000000 1.039502 0.336137 0.066862 0.939437 255 0 0
0.000008 -0.954302 1.411847 0.029174 -0.146667 0.988756 255 0 0
1.754831 0.726871 -1.271655 0.146667 0.029174 -0.988756 0 0 255
-0.674786 0.674794 1.411847 -0.124338 0.083080 0.988756 255 0 0
1.998446 1.998438 -1.039502 0.137476 0.205747 -0.968901 0 0 255
-1.343076 1.343084 1.271655 -0.083080 0.124338 0.988756 255 0 0
3 0 1 2
3 3 4 5
3 6 7 8
3 1 9 2
3 10 11 12
3 13 14 15
3 16 17 18
3 19 20 21
3 22 23 24
3 25 26 27
3 28 29 30
3 31 32 33
3 34 35 36
3 37 38 39
3 40 41 42
3 43 44 45
3 46 47 48
3 49 50 51
3 52 53 54
3 55 56 57
3 58 59 60
3 61 62 63
3 64 65 66
3 67 68 69
3 70 71 72
3 73 74 75
3 76 77 78
3 79 80 81
3 82 83 84
3 85 86 87
3 88 89 90
3 91 92 93
3 94 95 96
3 97 98 99
3 100 101 102
3 103 104 105
3 106 107 108
3 109 59 110
3 111 112 113
3 114 40 42
3 115 116 117
3 118 119 120
3 121 122 123
3 124 85 87
3 125 126 127
3 128 129 130
3 131 132 133
3 134 135 136
3 137 46 48
3 138 139 140
3 141 142 143
3 144 145 146
3 147 94 96
3 148 149 150
3 151 152 153
3 154 155 156
3 157 158 159
3 160 161 162
3 163 164 165
3 53 166 54
3 167 168 169
3 170 171 172
3 173 174 175
3 176 177 178
3 179 180 181
3 182 183 184
3 185 186 187
3 188 189 190
3 191 192 193
3 194 195 196
3 197 3 198
3 199 200 201
3 202 203 204
3 205 206 207
3 208 209 210
3 211 212 213
3 214 215 216
3 217 218 219
3 220 221 222
3 223 224 225
3 226 227 228
3 229 230 231
3 232 233 234
3 235 109 110
3 236 237 238
3 239 64 66
3 240 241 242
3 243 244 245
3 80 246 81
3 247 111 113
3 248 249 250
3 251 252 253
3 254 255 256
3 257 258 259
3 260 261 262
3 263 264 265
3 266 267 268
3 269 270 271
3 272 273 274
3 275 276 277
3 278 163 165
3 279 280 281
3 282 283 284
3 285 286 287
3 288 289 290
3 291 288 290
3 292 293 294
3 295 296 297
3 298 299 300
3 301 302 303
3 304 305 306
3 307 308 309
3 310 311 312
3 186 313 187
3 314 315 316
3 317 318 319
3 126 320 127
3 321 106 108
3 32 322 33
3 323 144 146
3 324 325 326
3 302 327 303
3 328 329 330
3 331 332 333
3 334 335 336
3 337 338 339
3 340 341 342
3 343 344 345
3 346 347 348
3 349 350 351
3 352 353 354
3 355 356 357
3 358 359 360
3 361 362 363
3 364 365 366
3 367 324 326
3 368 369 370
3 371 372 373
3 374 375 376
3 377 378 379
3 353 380 354
3 381 382 383
3 384 385 386
3 387 260 262
3 388 389 390
3 391 392 393
3 394 223 225
3 395 396 397
3 398 399 400
3 401 402 403
3 404 405 406
3 407 408 409
3 410 411 412
3 413 414 415
3 416 417 208
3 418 419 420
3 421 422 423
3 424 425 426
3 427 428 429
3 38 430 39
3 431 432 433
3 434 435 436
3 437 282 284
3 438 371 373
3 439 440 441
3 442 443 444
3 445 446 447
3 448 55 57
3 449 307 309
3 450 451 452
3 453 454 455
3 456 314 316
3 457 458 459
3 460 461 462
3 463 100 102
3 464 304 306
3 465 466 467
3 468 469 470
3 471 472 473
3 474 475 476
3 477 232 234
3 478 479 480
3 189 481 190
3 299 482 300
3 483 484 485
3 486 468 470
3 487 488 489
3 490 491 492
3 95 493 96
3 494 495 496
3 497 498 499
3 500 501 502
3 503 504 505
3 506 507 508
3 509 254 256
3 510 511 512
3 513 514 515
3 516 517 518
3 519 520 521
3 522 523 524
3 525 526 527
3 528 529 530
3 230 531 231
3 408 532 409
3 392 533 393
3 534 535 536
3 537 538 539
3 396 540 397
3 541 542 543
3 544 545 546
3 547 457 459
3 375 548 376
3 264 549 265
3 550 551 552
3 362 553 363
3 545 554 546
3 555 556 557
3 558 559 560
3 561 562 563
3 564 565 566
3 567 568 569
3 570 571 572
3 501 573 502
3 556 574 557
3 575 576 577
3 260 578 579
3 26 580 27
3 475 581 476
3 261 260 579
3 582 82 84
3 583 584 585
3 586 587 588
3 329 589 330
3 590 541 543
3 59 109 60
3 591 471 473
3 592 279 281
3 593 167 169
3 594 497 499
3 595 596 597
3 520 598 521
3 276 599 277
3 504 600 505
3 601 602 603
3 604 605 606
3 607 608 609
3 252 610 253
3 611 612 613
3 614 615 616
3 617 618 619
3 200 620 201
3 621 460 462
3 622 623 624
3 625 626 627
3 484 628 485
3 629 368 370
3 183 630 184
3 631 632 633
3 634 442 444
3 635 636 637
3 638 639 640
3 641 642 643
3 644 645 646
3 647 648 649
3 174 650 175
3 651 141 143
3 535 652 536
3 653 465 467
3 654 655 656
3 657 658 659
3 660 654 656
3 493 661 96
3 92 662 93
3 663 115 117
3 664 236 238
3 665 487 489
3 666 331 333
3 667 450 452
3 584 668 585
3 365 669 366
3 551 670 552
3 671 285 287
3 382 672 383
3 576 673 577
3 674 561 563
3 135 675 136
3 432 676 433
3 677 10 12
