ply
format ascii 1.0
element vertex 178
property float x
property float y
property float z
property uchar red
property uchar green
property uchar blue
element face 288
property list uchar int vertex_indices
end_header
0.365203 -0.881660 -1.411847 0 0 255
0.000005 -0.000007 -1.458730 0 0 255
0.881668 -0.365196 -1.411847 0 0 255
1.343091 -1.343083 1.271655 255 0 0
1.754830 -0.726871 1.271655 255 0 0
0.881668 -0.365196 1.411847 255 0 0
1.754830 -0.726871 -1.271655 0 0 255
1.343091 -1.343083 -1.271655 0 0 255
-1.081539 2.611086 -1.039502 0 0 255
-0.726864 1.754823 -1.271655 0 0 255
-1.343076 1.343084 -1.271655 0 0 255
2.539140 2.539131 0.765903 255 0 0
1.998446 1.998438 1.039502 255 0 0
2.611094 1.081547 1.039502 255 0 0
0.726879 -1.754823 -1.271655 0 0 255
0.726879 1.754823 1.271655 255 0 0
1.343091 1.343083 1.271655 255 0 0
-3.600000 -0.000000 -0.000001 0 255 0
-3.325966 -1.377661 -0.000001 0 255 0
-3.325966 -1.377661 0.775001 0 255 0
-2.545584 -2.545584 -0.000001 0 255 0
-1.377661 -3.325966 -0.000001 0 255 0
-1.377661 -3.325966 0.775001 0 255 0
1.377660 -3.325967 -0.000001 0 255 0
2.545584 -2.545585 -0.000001 0 255 0
2.539139 -2.539132 0.765903 0 255 0
-0.674786 0.674794 1.411847 255 0 0
0.000005 -0.000007 1.458730 255 0 0
0.000008 0.954303 1.411847 255 0 0
-3.325966 1.377660 -0.000001 0 255 0
-3.317528 1.374168 -0.765903 0 255 0
-3.600000 -0.000000 -0.775001 0 255 0
1.754831 0.726871 1.271655 255 0 0
0.674802 0.674794 1.411847 255 0 0
0.000008 -1.899407 1.271655 255 0 0
0.000008 -0.954302 1.411847 255 0 0
-0.365188 -0.881660 1.411847 255 0 0
0.000008 1.899407 -1.271655 0 0 255
0.000008 0.954303 -1.411847 0 0 255
-1.081539 2.611086 1.039502 255 0 0
-1.374160 3.317535 0.765903 255 0 0
-2.539124 2.539132 0.765903 255 0 0
0.726879 -1.754823 1.271655 255 0 0
1.081554 -2.611085 1.039502 255 0 0
-2.539124 2.539132 -0.765903 0 255 0
2.611094 1.081547 -1.039502 0 0 255
1.754831 0.726871 -1.271655 0 0 255
1.343091 1.343083 -1.271655 0 0 255
1.374176 3.317535 0.765903 255 0 0
1.081555 2.611085 1.039502 255 0 0
0.000008 -2.826218 1.039502 255 0 0
1.998446 -1.998438 1.039502 255 0 0
1.374175 -3.317535 0.765903 255 0 0
0.000008 2.826219 1.039502 255 0 0
0.000008 3.590874 0.765903 255 0 0
-1.343075 -1.343083 -1.271655 0 0 255
-1.754815 -0.726871 -1.271655 0 0 255
-0.881652 -0.365196 -1.411847 0 0 255
0.674802 0.674794 -1.411847 0 0 255
0.726879 1.754823 -1.271655 0 0 255
-1.081539 -2.611084 1.039502 255 0 0
-1.998430 -1.998438 1.039502 255 0 0
-2.545584 -2.545584 0.775001 255 0 0
2.611094 -1.081547 -1.039502 0 0 255
1.899414 0.000000 -1.271655 0 0 255
3.317543 1.374168 -0.765903 0 255 0
2.539140 2.539131 -0.765903 0 255 0
2.545584 2.545585 -0.000001 0 255 0
0.954310 0.000000 1.411847 255 0 0
-0.674786 0.674794 -1.411847 0 0 255
-1.899399 0.000000 1.271655 255 0 0
-1.754815 -0.726871 1.271655 255 0 0
-0.881652 -0.365196 1.411847 255 0 0
3.325966 -1.377661 -0.000001 0 255 0
3.317543 -1.374168 -0.765903 0 255 0
3.590881 -0.000000 -0.765903 0 255 0
0.954310 0.000000 -1.411847 0 0 255
0.000008 -0.954302 -1.411847 0 0 255
0.000008 -1.899407 -1.271655 0 0 255
-0.726863 -1.754823 -1.271655 0 0 255
-1.754816 0.726872 -1.271655 0 0 255
-2.611078 1.081547 -1.039502 0 0 255
1.998446 1.998438 -1.039502 0 0 255
1.998446 -1.998438 -1.039502 0 0 255
3.317543 -1.374168 0.765903 0 255 0
-2.539124 2.539132 -0.765903 0 0 255
-1.374160 3.317535 -0.765903 0 0 255
-2.611077 -1.081547 -1.039502 0 0 255
-2.826211 0.000000 -1.039501 0 0 255
-0.674786 -0.674793 -1.411847 0 0 255
0.000008 2.826219 -1.039502 0 0 255
-0.000000 -3.600000 0.775001 0 255 0
-0.000000 -3.600000 -0.000001 0 255 0
3.325966 1.377661 -0.000001 0 255 0
3.317543 1.374168 0.765903 0 255 0
3.590881 -0.000000 0.765903 0 255 0
-3.325966 -1.377661 -0.775001 0 255 0
-3.600000 -0.000000 -0.775001 0 0 255
0.365203 -0.881660 1.411847 255 0 0
0.674801 -0.674794 1.411847 255 0 0
-0.674786 -0.674793 1.411847 255 0 0
-2.611078 1.081547 1.039502 255 0 0
-1.754816 0.726872 1.271655 255 0 0
-1.343076 1.343084 1.271655 255 0 0
1.377659 3.325967 -0.000001 0 255 0
1.374176 3.317535 0.765903 0 255 0
2.539140 2.539131 0.765903 0 255 0
-2.545584 -2.545584 -0.775001 0 255 0
-0.000000 -3.600000 0.775001 255 0 0
1.081555 2.611085 -1.039502 0 0 255
1.374175 -3.317535 -0.765903 0 255 0
2.539139 -2.539132 -0.765903 0 255 0
-2.826211 0.000000 1.039501 255 0 0
-0.881653 0.365196 -1.411847 0 0 255
-0.954295 0.000000 -1.411848 0 0 255
-0.000000 -3.600000 -0.775001 0 255 0
-1.343075 -1.343083 1.271655 255 0 0
-1.081539 -2.611084 -1.039502 0 0 255
-1.998430 -1.998438 -1.039502 0 0 255
-1.377661 -3.325966 0.775001 255 0 0
1.081554 -2.611085 -1.039502 0 0 255
0.365204 0.881661 -1.411847 0 0 255
0.881669 0.365196 -1.411847 0 0 255
2.611094 -1.081547 1.039502 255 0 0
2.539139 -2.539132 0.765903 255 0 0
-0.954295 0.000000 1.411848 255 0 0
-1.377660 3.325966 -0.000001 0 255 0
-1.374160 3.317535 0.765903 0 255 0
0.000008 3.590874 0.765903 0 255 0
-1.374160 3.317535 -0.765903 0 255 0
-2.545584 2.545584 -0.000001 0 255 0
0.000008 1.899407 1.271655 255 0 0
0.000008 -2.826218 -1.039502 0 0 255
0.365204 0.881661 1.411847 255 0 0
-0.365188 0.881661 1.411847 255 0 0
-0.726864 1.754823 1.271655 255 0 0
2.539140 2.539131 -0.765903 0 0 255
3.317543 1.374168 -0.765903 0 0 255
1.899414 0.000000 1.271655 255 0 0
-1.377661 -3.325966 -0.775001 0 255 0
-1.899399 0.000000 -1.271655 0 0 255
0.000000 3.600000 -0.000001 0 255 0
0.000008 3.590874 -0.765903 0 255 0
3.590881 -0.000000 -0.765903 0 0 255
2.826226 0.000000 -1.039502 0 0 255
-2.611077 -1.081547 1.039502 255 0 0
-3.325966 -1.377661 0.775001 255 0 0
-3.600000 -0.000000 0.775001 255 0 0
2.826226 0.000000 1.039502 255 0 0
3.590881 -0.000000 0.765903 255 0 0
2.539139 -2.539132 -0.765903 0 0 255
1.374175 -3.317535 -0.765903 0 0 255
1.374176 3.317535 -0.765903 0 255 0
-1.377661 -3.325966 -0.775001 0 0 255
-2.545584 -2.545584 -0.775001 0 0 255
-0.881653 0.365196 1.411847 255 0 0
3.317543 -1.374168 0.765903 255 0 0
-3.325966 -1.377661 -0.775001 0 0 255
3.317543 -1.374168 -0.765903 0 0 255
1.374176 3.317535 -0.765903 0 0 255
-3.317528 1.374168 0.765903 0 255 0
-2.539124 2.539132 0.765903 0 255 0
-0.726863 -1.754823 1.271655 255 0 0
-1.998431 1.998439 1.039502 255 0 0
-3.317528 1.374168 0.765903 255 0 0
-0.365188 0.881661 -1.411847 0 0 255
-1.998431 1.998439 -1.039502 0 0 255
-3.317528 1.374168 -0.765903 0 0 255
3.600000 0.000000 -0.000001 0 255 0
0.881669 0.365196 1.411847 255 0 0
-0.000000 -3.600000 -0.775001 0 0 255
-2.545584 -2.545584 0.775001 0 255 0
0.000008 3.590874 -0.765903 0 0 255
-3.600000 -0.000000 0.775001 0 255 0
0.674801 -0.674794 -1.411847 0 0 255
3.317543 1.374168 0.765903 255 0 0
1.374175 -3.317535 0.765903 0 255 0
-0.365188 -0.881660 -1.411847 0 0 255
3 0 1 2
3 3 4 5
3 2 6 7
3 8 9 10
3 11 12 13
3 7 14 0
3 15 16 12
3 17 18 19
3 20 21 22
3 23 24 25
3 26 27 28
3 29 30 31
3 32 16 33
3 34 35 36
3 9 37 38
3 39 40 41
3 3 42 43
3 44 30 29
3 45 46 47
3 11 48 49
3 50 43 42
3 35 34 42
3 51 43 52
3 39 53 54
3 55 56 57
3 58 1 38
3 59 47 58
3 60 61 62
3 63 6 64
3 65 66 67
3 27 5 68
3 38 1 69
3 70 71 72
3 73 74 75
3 2 76 64
3 77 78 79
3 10 80 81
3 82 47 59
3 63 83 7
3 54 53 49
3 84 25 24
3 85 86 8
3 56 87 88
3 89 1 77
3 9 8 90
3 91 92 23
3 93 94 95
3 78 77 0
3 17 31 96
3 81 88 97
3 98 99 5
3 35 27 100
3 101 102 103
3 104 67 66
3 104 105 106
3 26 103 102
3 96 107 20
3 43 50 108
3 90 109 59
3 23 110 111
3 71 70 112
3 80 113 114
3 115 92 21
3 116 100 72
3 28 27 33
3 79 117 118
3 50 60 119
3 7 83 120
3 121 38 37
3 46 122 58
3 123 51 124
3 99 98 42
3 100 27 125
3 126 127 128
3 76 1 58
3 129 44 130
3 131 53 39
3 15 49 53
3 132 78 14
3 133 15 131
3 26 134 135
3 82 136 137
3 138 4 123
3 20 107 139
3 80 140 88
3 135 134 28
3 10 69 113
3 126 141 142
3 143 144 45
3 61 145 146
3 145 112 147
3 125 27 26
3 94 93 67
3 13 148 149
3 45 144 64
3 150 151 120
3 0 77 1
3 114 1 89
3 147 112 101
3 76 2 1
3 141 104 152
3 116 71 145
3 60 50 34
3 114 113 69
3 117 153 154
3 75 65 93
3 155 102 70
3 57 56 140
3 138 68 5
3 46 64 76
3 156 149 148
3 157 87 118
3 112 70 102
3 97 88 87
3 158 63 144
3 13 12 16
3 159 109 90
3 29 160 161
3 13 32 138
3 162 36 100
3 163 103 135
3 163 41 164
3 78 132 117
3 130 161 127
3 9 165 69
3 166 81 167
3 73 168 95
3 32 169 68
3 15 133 33
3 141 128 105
3 24 111 74
3 87 56 55
3 79 55 89
3 170 132 120
3 20 171 19
3 83 63 158
3 22 21 92
3 172 90 8
3 23 92 115
3 4 3 51
3 61 60 162
3 153 117 132
3 109 159 136
3 35 98 27
3 29 17 173
3 68 169 33
3 174 0 2
3 99 3 5
3 174 2 7
3 166 8 10
3 175 11 13
3 174 7 0
3 49 15 12
3 173 17 19
3 171 20 22
3 176 23 25
3 134 26 28
3 17 29 31
3 169 32 33
3 162 34 36
3 165 9 38
3 163 39 41
3 51 3 43
3 130 44 29
3 82 45 47
3 12 11 49
3 34 50 42
3 98 35 42
3 124 51 52
3 40 39 54
3 89 55 57
3 121 58 38
3 121 59 58
3 119 60 62
3 144 63 64
3 93 65 67
3 165 38 69
3 125 70 72
3 168 73 75
3 6 2 64
3 177 77 79
3 166 10 81
3 109 82 59
3 6 63 7
3 48 54 49
3 73 84 24
3 166 85 8
3 140 56 88
3 177 89 77
3 37 9 90
3 176 91 23
3 168 93 95
3 14 78 0
3 18 17 96
3 167 81 97
3 27 98 5
3 36 35 100
3 163 101 103
3 152 104 66
3 67 104 106
3 155 26 102
3 18 96 20
3 52 43 108
3 37 90 59
3 24 23 111
3 145 71 112
3 140 80 114
3 139 115 21
3 71 116 72
3 133 28 33
3 55 79 118
3 108 50 119
3 14 7 120
3 59 121 37
3 47 46 58
3 156 123 124
3 3 99 42
3 72 100 125
3 141 126 128
3 122 76 58
3 126 129 130
3 135 131 39
3 131 15 53
3 120 132 14
3 28 133 131
3 103 26 135
3 45 82 137
3 148 138 123
3 21 20 139
3 81 80 88
3 131 135 28
3 80 10 113
3 129 126 142
3 137 143 45
3 62 61 146
3 146 145 147
3 155 125 26
3 106 94 67
3 175 13 149
3 46 45 64
3 83 150 120
3 57 114 89
3 164 147 101
3 142 141 152
3 61 116 145
3 162 60 34
3 1 114 69
3 118 117 154
3 168 75 93
3 125 155 70
3 114 57 140
3 4 138 5
3 122 46 76
3 123 156 148
3 154 157 118
3 101 112 102
3 157 97 87
3 143 158 144
3 32 13 16
3 172 159 90
3 130 29 161
3 148 13 138
3 116 162 100
3 39 163 135
3 101 163 164
3 79 78 117
3 126 130 127
3 10 9 69
3 85 166 167
3 84 73 95
3 138 32 68
3 16 15 33
3 104 141 105
3 73 24 74
3 118 87 55
3 177 79 89
3 151 170 120
3 18 20 19
3 150 83 158
3 91 22 92
3 86 172 8
3 110 23 115
3 123 4 51
3 116 61 162
3 170 153 132
3 82 109 136
3 160 29 173
3 27 68 33
